<svg xmlns="http://www.w3.org/2000/svg" style="display:none">
  <!-- Facebook Icon -->
  <symbol id="icon-facebook" viewBox="0 0 24 24">
    <path d="M22.675 0h-21.35C.595 0 0 .595 0 1.326v21.348C0 23.405.595 24 1.326 24h11.495v-9.294H9.691v-3.622h3.13V8.413c0-3.1 1.893-4.788 4.659-4.788 1.325 0 2.463.099 2.797.143v3.24l-1.918.001c-1.504 0-1.797.715-1.797 1.763v2.313h3.587l-.467 3.622h-3.12V24h6.116C23.405 24 24 23.405 24 22.674V1.326C24 .595 23.405 0 22.675 0z"/>
  </symbol>
  <!-- Twitter Icon -->
  <symbol id="icon-twitter" viewBox="0 0 24 24">
    <path d="M24 4.557a9.83 9.83 0 01-2.828.775 4.932 4.932 0 002.165-2.724c-.951.564-2.005.974-3.127 1.195a4.916 4.916 0 00-8.384 4.482C7.691 8.095 4.066 6.13 1.64 3.161c-.542.929-.855 2.006-.855 3.17 0 2.188 1.115 4.117 2.813 5.254a4.904 4.904 0 01-2.229-.616c-.054 2.281 1.581 4.415 3.949 4.89a4.936 4.936 0 01-2.224.084c.627 1.956 2.444 3.377 4.6 3.418A9.867 9.867 0 010 21.543a13.94 13.94 0 007.548 2.212c9.058 0 14.009-7.513 14.009-14.009 0-.213-.005-.425-.014-.636A10.025 10.025 0 0024 4.557z"/>
  </symbol>
  <!-- Instagram Icon -->
  <symbol id="icon-instagram" viewBox="0 0 24 24">
    <path d="M12 2.163c3.204 0 3.584.012 4.85.07 1.366.062 2.633.334 3.608 1.308.974.974 1.246 2.241 1.308 3.608.058 1.266.07 1.646.07 4.85s-.012 3.584-.07 4.85c-.062 1.366-.334 2.633-1.308 3.608-.974.974-2.241 1.246-3.608 1.308-1.266.058-1.646.07-4.85.07s-3.584-.012-4.85-.07c-1.366-.062-2.633-.334-3.608-1.308-.974-.974-1.246-2.241-1.308-3.608C2.175 15.647 2.163 15.267 2.163 12s.012-3.584.07-4.85c.062-1.366.334-2.633 1.308-3.608.974-.974 2.241-1.246 3.608-1.308C8.416 2.175 8.796 2.163 12 2.163zm0-2.163C8.741 0 8.332.013 7.052.072 5.771.131 4.659.425 3.678 1.406c-.981.981-1.275 2.093-1.334 3.374C2.013 5.741 2 6.151 2 12c0 5.849.013 6.259.072 7.54.059 1.281.353 2.393 1.334 3.374.981.981 2.093 1.275 3.374 1.334C8.332 23.987 8.741 24 12 24s3.668-.013 4.948-.072c1.281-.059 2.393-.353 3.374-1.334.981-.981 1.275-2.093 1.334-3.374.059-1.281.072-1.691.072-7.54 0-5.849-.013-6.259-.072-7.54-.059-1.281-.353-2.393-1.334-3.374-.981-.981-2.093-1.275-3.374-1.334C15.668.013 15.259 0 12 0zm0 5.838a6.162 6.162 0 100 12.324 6.162 6.162 0 000-12.324zm0 10.162a3.999 3.999 0 110-7.998 3.999 3.999 0 010 7.998zm6.406-11.845a1.44 1.44 0 11-2.88 0 1.44 1.44 0 012.88 0z"/>
  </symbol>
  <!-- LinkedIn Icon -->
  <symbol id="icon-linkedin" viewBox="0 0 24 24">
    <path d="M22.23 0H1.77C.792 0 0 .774 0 1.729v20.542C0 23.226.792 24 1.77 24h20.459C23.208 24 24 23.226 24 22.271V1.729C24 .774 23.208 0 22.23 0zM7.12 20.452H3.56V9.048h3.56v11.404zM5.34 7.433a2.07 2.07 0 110-4.139 2.07 2.07 0 010 4.139zm15.112 13.019h-3.554v-5.569c0-1.328-.027-3.037-1.85-3.037-1.85 0-2.132 1.445-2.132 2.939v5.667h-3.554V9.048h3.414v1.561h.049c.476-.9 1.637-1.85 3.37-1.85 3.602 0 4.267 2.37 4.267 5.455v6.238z"/>
  </symbol>
</svg>